<svg xmlns="http://www.w3.org/2000/svg" viewBox="0 0 124 124" role="img" aria-labelledby="t d">
<title id="t">Clockwork Carnage</title><desc id="d">Alternative: a clock face torn at eleven o'clock. Legacy style.</desc>
<defs>
    <filter id="glow" x="-40%" y="-40%" width="180%" height="180%">
      <feGaussianBlur stdDeviation="3.2" result="b"/>
      <feMerge><feMergeNode in="b"/><feMergeNode in="b"/><feMergeNode in="SourceGraphic"/></feMerge>
    </filter>
    <filter id="rift" x="-40%" y="-40%" width="180%" height="180%"><feGaussianBlur stdDeviation="4"/></filter>
    <radialGradient id="bgL" cx="50%" cy="45%" r="70%"><stop offset="0" stop-color="#0d1a38"/><stop offset="1" stop-color="#05060c"/></radialGradient></defs>
<rect width="124" height="124" rx="14.879999999999999" fill="url(#bgL)"/><g transform="translate(60 60)"><path d="M-22 -38.11L-10.49 -30.22L-14.65 -13.33L2.08 -8.44L-2.08 8.44L14.65 13.33L10.49 30.22L22 38.11" fill="none" stroke="#9b5cff" stroke-width="10" opacity=".6" filter="url(#rift)"/>
      <g filter="url(#glow)" fill="none" stroke-linecap="round"><path d="M-22 -38.11L-10.49 -30.22L-14.65 -13.33L2.08 -8.44L-2.08 8.44L14.65 13.33L10.49 30.22L22 38.11A44 44 0 0 1 -22 -38.11Z" stroke="#22e6ff" stroke-width="2.6"/>
      <g transform="translate(7 5) rotate(6)"><path d="M22 38.11L10.49 30.22L14.65 13.33L-2.08 8.44L2.08 -8.44L-14.65 -13.33L-10.49 -30.22L-22 -38.11A44 44 0 0 1 22 38.11Z" stroke="#ff2a4a" stroke-width="2.6"/></g>
      <path d="M0 -36L0 -30M18 -31.18L20 -34.64M31.18 -18L34.64 -20M36 0L30 0M31.18 18L34.64 20M18 31.18L20 34.64M0 36L0 30M-18 31.18L-20 34.64M-31.18 18L-34.64 20M-36 0L-30 0M-31.18 -18L-34.64 -20M-18 -31.18L-20 -34.64" stroke="#22e6ff" stroke-width="2" opacity=".7"/><line x1="0" y1="0" x2="-10" y2="-17.32" stroke="#00ffcc" stroke-width="3" stroke-linecap="round"/><line x1="0" y1="0" x2="0" y2="-30" stroke="#00ffcc" stroke-width="3" stroke-linecap="round"/><line x1="-7.31" y1="3.25" x2="34.71" y2="-15.46" stroke="#ff2a4a" stroke-width="2.2" stroke-linecap="round"/></g></g>
</svg>
