<svg xmlns="http://www.w3.org/2000/svg" viewBox="0 0 124 124" role="img" aria-labelledby="t d">
<title id="t">Clockwork Carnage</title><desc id="d">Alternative: a clock face torn at eleven o'clock. Modern style.</desc>
<defs>
    <linearGradient id="steelM" x1="0" y1="-50" x2="0" y2="50" gradientUnits="userSpaceOnUse">
      <stop offset="0" stop-color="#e9f2fa"/><stop offset=".45" stop-color="#9fb3c6"/><stop offset=".55" stop-color="#6c8196"/><stop offset="1" stop-color="#2c3a48"/>
    </linearGradient>
    <linearGradient id="letM" x1="0" y1="0" x2="0" y2="100" gradientUnits="userSpaceOnUse">
      <stop offset="0" stop-color="#f4f8fc"/><stop offset=".5" stop-color="#b8c7d6"/><stop offset=".52" stop-color="#8a9db0"/><stop offset="1" stop-color="#5a6d80"/>
    </linearGradient>
    <linearGradient id="redM" x1="0" y1="0" x2="0" y2="100" gradientUnits="userSpaceOnUse">
      <stop offset="0" stop-color="#ff6a80"/><stop offset=".5" stop-color="#ff2a4a"/><stop offset="1" stop-color="#b3102b"/>
    </linearGradient>
    <linearGradient id="redC" x1="0" y1="-50" x2="0" y2="50" gradientUnits="userSpaceOnUse">
      <stop offset="0" stop-color="#ff7a8e"/><stop offset=".5" stop-color="#ff2a4a"/><stop offset="1" stop-color="#9e0d26"/>
    </linearGradient>
    <filter id="rift" x="-40%" y="-40%" width="180%" height="180%"><feGaussianBlur stdDeviation="3.5"/></filter>
    <filter id="soft" x="-20%" y="-20%" width="140%" height="140%"><feDropShadow dx="0" dy="3" stdDeviation="3" flood-color="#000" flood-opacity=".45"/></filter></defs>
<rect width="124" height="124" rx="14.879999999999999" fill="#0b1422"/><g transform="translate(60 60)"><path d="M-22 -38.11L-10.49 -30.22L-14.65 -13.33L2.08 -8.44L-2.08 8.44L14.65 13.33L10.49 30.22L22 38.11" fill="none" stroke="#9b5cff" stroke-width="10" opacity=".7" filter="url(#rift)"/>
    <g filter="url(#soft)"><path d="M-22 -38.11L-10.49 -30.22L-14.65 -13.33L2.08 -8.44L-2.08 8.44L14.65 13.33L10.49 30.22L22 38.11A44 44 0 0 1 -22 -38.11Z" fill="url(#steelM)"/><g transform="translate(7 5) rotate(6)"><path d="M22 38.11L10.49 30.22L14.65 13.33L-2.08 8.44L2.08 -8.44L-14.65 -13.33L-10.49 -30.22L-22 -38.11A44 44 0 0 1 22 38.11Z" fill="url(#redC)"/></g></g>
    <path d="M0 -36L0 -30M18 -31.18L20 -34.64M31.18 -18L34.64 -20M36 0L30 0M31.18 18L34.64 20M18 31.18L20 34.64M0 36L0 30M-18 31.18L-20 34.64M-31.18 18L-34.64 20M-36 0L-30 0M-31.18 -18L-34.64 -20M-18 -31.18L-20 -34.64" stroke="#ffffff" stroke-opacity=".75" stroke-width="2" stroke-linecap="round"/>
    <line x1="0" y1="0" x2="-10" y2="-17.32" stroke="#eef4fa" stroke-width="3.4" stroke-linecap="round"/><line x1="0" y1="0" x2="0" y2="-30" stroke="#eef4fa" stroke-width="3.4" stroke-linecap="round"/><line x1="-7.31" y1="3.25" x2="34.71" y2="-15.46" stroke="#ff2a4a" stroke-width="2" stroke-linecap="round"/><circle r="3.6" fill="#eef4fa"/></g>
</svg>
